<svg id="heart" xmlns="http://www.w3.org/2000/svg" width="20.599" height="20.6" viewBox="0 0 20.599 20.6">
  <path id="Path_1373" data-name="Path 1373" d="M22.515,29.588a9.527,9.527,0,0,1,8.246-9.506A9.731,9.731,0,0,0,29.5,20,9.521,9.521,0,0,0,20,29.588v9.4l.157-.157a4.417,4.417,0,0,1,2.357-1.228Z" transform="translate(-19.195 -19.195)" fill="#deb6f1"/>
  <path id="Path_1374" data-name="Path 1374" d="M.8,20.6a.8.8,0,0,1-.8-.8V10.4A10.325,10.325,0,0,1,10.3,0,10.271,10.271,0,0,1,20.6,10.4,10.309,10.309,0,0,1,10.262,20.6h-.01a10.175,10.175,0,0,1-4.6-1.081,3.565,3.565,0,0,0-4.12.688l-.157.157A.8.8,0,0,1,.8,20.6Zm3.27-3.064a5.12,5.12,0,0,1,2.3.544,8.581,8.581,0,0,0,3.88.91h.008a8.735,8.735,0,0,0,8.729-8.6A8.68,8.68,0,0,0,4.133,4.192,8.627,8.627,0,0,0,1.61,10.385s0,.005,0,.008v7.768a5.185,5.185,0,0,1,2.465-.625Z" transform="translate(0 0)" fill="#622a7b"/>
  <path id="Path_1375" data-name="Path 1375" d="M150.426,172.963a2.55,2.55,0,0,1-1.53-.506,6.3,6.3,0,0,1-2.9-4.82c0-.005,0-.011,0-.016a2.614,2.614,0,0,1,4.426-1.891,2.614,2.614,0,0,1,4.426,1.891c0,.005,0,.011,0,.016a6.3,6.3,0,0,1-2.9,4.821A2.551,2.551,0,0,1,150.426,172.963Zm-2.816-5.35a4.924,4.924,0,0,0,2.251,3.556.948.948,0,0,0,1.131,0,4.924,4.924,0,0,0,2.251-3.556,1.006,1.006,0,0,0-2.012,0,.8.8,0,0,1-1.609,0,1.006,1.006,0,0,0-2.012,0Z" transform="translate(-140.126 -158.361)" fill="#622a7b"/>
</svg>
