<svg id="interest" xmlns="http://www.w3.org/2000/svg" width="18.885" height="18.88" viewBox="0 0 18.885 18.88">
  <path id="Path_2502" data-name="Path 2502" d="M23.1,150.741l-.882-7.258a2.424,2.424,0,0,1,.615-1.91l-.41-.5a2.434,2.434,0,0,0-2.418,2.709l.794,6.964a3.688,3.688,0,0,0,3.664,3.27h2.3A3.688,3.688,0,0,1,23.1,150.741Z" transform="translate(-19.253 -135.868)" fill="#deb6f1"/>
  <path id="Path_2503" data-name="Path 2503" d="M13.675,18.948H5.211a4.423,4.423,0,0,1-4.4-3.924L.02,8.06A3.171,3.171,0,0,1,3.171,4.53a.738.738,0,1,1,0,1.475A1.7,1.7,0,0,0,1.486,7.893l.794,6.964a2.949,2.949,0,0,0,2.931,2.616h8.464a2.949,2.949,0,0,0,2.931-2.616L17.4,7.893a1.7,1.7,0,0,0-1.685-1.888.738.738,0,1,1,0-1.475,3.171,3.171,0,0,1,3.151,3.53l-.794,6.964a4.423,4.423,0,0,1-4.4,3.924ZM6.754,10.541V4.235a2.692,2.692,0,1,1,5.384,0v.3H8.966a.738.738,0,0,0,0,1.475h3.909a.738.738,0,0,0,.738-.738V4.235a4.167,4.167,0,0,0-8.334,0v6.306a.738.738,0,1,0,1.475,0Z" transform="translate(0 -0.068)" fill="#622a7b"/>
  <path id="Path_2504" data-name="Path 2504" d="M246.068,265.068a.922.922,0,1,1-.922.922A.922.922,0,0,1,246.068,265.068Zm3.1,5.089a.922.922,0,1,0,.922-.922A.922.922,0,0,0,249.165,270.157Zm-2.713.695,4.351-4.536a.738.738,0,0,0-1.064-1.021l-4.351,4.536a.738.738,0,0,0,1.064,1.021Z" transform="translate(-236.106 -255.296)" fill="#622a7b"/>
</svg>
