<svg id="pages" xmlns="http://www.w3.org/2000/svg" width="7.05" height="7.05" viewBox="0 0 7.05 7.05">
  <path id="Path_1537" data-name="Path 1537" d="M22.217,26.5h-.84A1.377,1.377,0,0,1,20,25.122V21.377A1.377,1.377,0,0,1,21.377,20h.84a1.377,1.377,0,0,0-1.377,1.377v3.745A1.377,1.377,0,0,0,22.217,26.5Zm1.525-5.015-.182-.169-1.323,1.323a1.716,1.716,0,0,0-.469.877l-.156.78s.833-.167.859-.174L22.676,23a1.778,1.778,0,0,1,.456-.9Z" transform="translate(-19.725 -19.725)" fill="#deb6f1"/>
  <path id="Path_1538" data-name="Path 1538" d="M5.4,7.05H1.652A1.654,1.654,0,0,1,0,5.4V1.652A1.654,1.654,0,0,1,1.652,0H5.4A1.654,1.654,0,0,1,7.05,1.652V5.4A1.654,1.654,0,0,1,5.4,7.05ZM1.652.551a1.1,1.1,0,0,0-1.1,1.1V5.4a1.1,1.1,0,0,0,1.1,1.1H5.4A1.1,1.1,0,0,0,6.5,5.4V1.652A1.1,1.1,0,0,0,5.4.551Zm.234,4.3a.275.275,0,0,1-.27-.329l.156-.78a1.985,1.985,0,0,1,.545-1.018L3.64,1.4A1.005,1.005,0,1,1,5.062,2.817L3.738,4.141a1.985,1.985,0,0,1-1.018.545l-.78.156a.275.275,0,0,1-.054.005ZM4.351,1.652a.451.451,0,0,0-.321.133L2.706,3.109a1.436,1.436,0,0,0-.394.736l-.075.375.375-.075a1.436,1.436,0,0,0,.736-.394L4.672,2.428a.454.454,0,0,0,0-.643h0a.451.451,0,0,0-.321-.133Z" fill="#622a7b"/>
  <path id="Path_1539" data-name="Path 1539" d="M88.461,392.551H84.275a.275.275,0,0,1,0-.551h4.186a.275.275,0,0,1,0,.551Z" transform="translate(-82.843 -386.603)" fill="#ffde00"/>
</svg>
