<svg id="settings" xmlns="http://www.w3.org/2000/svg" width="18.037" height="19.988" viewBox="0 0 18.037 19.988">
  <path id="Path_2495" data-name="Path 2495" d="M54.8,36.865v-.035c0-.048,0-.095.008-.142a2.339,2.339,0,0,0-.844-.489,3.8,3.8,0,0,0-2.356-2.887,4.4,4.4,0,0,1-1.158-.675,3.8,3.8,0,0,0-1.866-.812,3.752,3.752,0,0,0,.267-2,4.48,4.48,0,0,1,0-1.263,3.754,3.754,0,0,0-.254-2.005,3.822,3.822,0,0,0,1.874-.8A4.4,4.4,0,0,1,51.6,25.1a3.8,3.8,0,0,0,2.354-2.867,2.34,2.34,0,0,0,.849-.492,1.45,1.45,0,0,1-.01-.16v-.016a1.562,1.562,0,1,0-3.123,0,1.456,1.456,0,0,1-.928,1.354,6.747,6.747,0,0,0-1.735,1,1.461,1.461,0,0,1-1.633.135l-.045-.025a1.56,1.56,0,1,0-1.541,2.714l.013.007a1.456,1.456,0,0,1,.728,1.471,6.822,6.822,0,0,0-.006,1.927,1.445,1.445,0,0,1-.723,1.453l-.012.007a1.56,1.56,0,1,0,1.541,2.714h0a1.458,1.458,0,0,1,1.638.14,6.747,6.747,0,0,0,1.775,1.034,1.454,1.454,0,0,1,.925,1.353v.02a1.562,1.562,0,1,0,3.123,0Z" transform="translate(-44.218 -19.219)" fill="#deb6f1"/>
  <path id="Path_2496" data-name="Path 2496" d="M34,19.988a2.345,2.345,0,0,1-2.342-2.342v-.02a.67.67,0,0,0-.43-.626,7.516,7.516,0,0,1-1.98-1.153.675.675,0,0,0-.761-.068l0,0a2.352,2.352,0,0,1-3.195-.884,2.336,2.336,0,0,1,.887-3.19l.01-.006a.668.668,0,0,0,.335-.666,7.6,7.6,0,0,1,.007-2.148.677.677,0,0,0-.341-.679L26.17,8.2a2.336,2.336,0,0,1-.885-3.189,2.352,2.352,0,0,1,3.195-.884l.047.027a.679.679,0,0,0,.761-.067A7.519,7.519,0,0,1,31.224,2.97a.673.673,0,0,0,.432-.627,2.342,2.342,0,1,1,4.685,0v.016a.673.673,0,0,0,.429.626A7.521,7.521,0,0,1,38.684,4.1a.678.678,0,0,0,.762.069l.068-.039a2.353,2.353,0,0,1,3.2.883,2.336,2.336,0,0,1-.887,3.19l-.054.03a.666.666,0,0,0-.335.666,7.61,7.61,0,0,1,.008,2.116.67.67,0,0,0,.335.666l.047.027a2.336,2.336,0,0,1,.886,3.189,2.352,2.352,0,0,1-3.195.884l-.027-.015a.678.678,0,0,0-.766.071,7.52,7.52,0,0,1-1.956,1.148.671.671,0,0,0-.426.625v.035A2.345,2.345,0,0,1,34,19.988Zm-5.183-5.86a2.244,2.244,0,0,1,1.413.5,5.959,5.959,0,0,0,1.569.914,2.223,2.223,0,0,1,1.42,2.08v.02a.781.781,0,1,0,1.562,0V17.61a2.225,2.225,0,0,1,1.41-2.076,5.961,5.961,0,0,0,1.551-.91,2.23,2.23,0,0,1,2.521-.217l.025.014a.787.787,0,0,0,1.068-.3.775.775,0,0,0-.3-1.059h0l-.048-.027A2.215,2.215,0,0,1,39.9,10.8a6.048,6.048,0,0,0-.006-1.68A2.238,2.238,0,0,1,41,6.875l.056-.032a.775.775,0,0,0,.3-1.06.788.788,0,0,0-1.07-.295l-.066.038a2.232,2.232,0,0,1-2.509-.208,5.961,5.961,0,0,0-1.517-.884,2.227,2.227,0,0,1-1.412-2.077V2.342a.781.781,0,1,0-1.562,0A2.225,2.225,0,0,1,31.8,4.423a5.96,5.96,0,0,0-1.534.887,2.233,2.233,0,0,1-2.5.2l-.045-.025a.787.787,0,0,0-1.068.3.775.775,0,0,0,.3,1.059l.015.009a2.249,2.249,0,0,1,1.115,2.263,6.041,6.041,0,0,0-.005,1.706,2.213,2.213,0,0,1-1.11,2.24l-.012.007a.776.776,0,0,0-.371.471.768.768,0,0,0,.073.588.788.788,0,0,0,1.07.295,2.227,2.227,0,0,1,1.1-.293Z" transform="translate(-24.98)" fill="#622a7b"/>
  <path id="Path_2497" data-name="Path 2497" d="M155.1,159.2a4.1,4.1,0,1,1,4.1-4.1A4.1,4.1,0,0,1,155.1,159.2Zm0-6.637a2.538,2.538,0,1,0,2.537,2.538A2.54,2.54,0,0,0,155.1,152.562Z" transform="translate(-146.08 -145.105)" fill="#622a7b"/>
</svg>
