<svg id="telephone" xmlns="http://www.w3.org/2000/svg" width="18.037" height="18.037" viewBox="0 0 18.037 18.037">
  <path id="Path_2499" data-name="Path 2499" d="M26.186,44.3c-3.346-3.1-5.653-8.013-2.43-11.235.208-.208.415-.378.636-.564a1.929,1.929,0,0,1,1.019-.44l-.552-.553a1.922,1.922,0,0,0-2.6-.109c-.221.186-.077,0-.284.211-3.521,3.578-1.875,8.519,1.69,12.053,2.372,2.351,5.357,3.82,8.13,3.474A11.226,11.226,0,0,1,26.186,44.3Z" transform="translate(-19.317 -29.861)" fill="#deb6f1"/>
  <path id="Path_2500" data-name="Path 2500" d="M11.664,18.139a8.086,8.086,0,0,1-1.445-.133,12.578,12.578,0,0,1-6.366-3.6,12.8,12.8,0,0,1-3.7-6.374,7.178,7.178,0,0,1,2-6.673c.22-.223.452-.438.692-.639A2.626,2.626,0,0,1,6.4.874l.009.009L7.6,2.122a2.574,2.574,0,0,1-.849,4.2,5.689,5.689,0,0,0-.941.465C5.153,7.451,4.735,8.538,7.19,11c.8.8,1.976,1.859,3.021,1.859a1.668,1.668,0,0,0,1.188-.548,5.473,5.473,0,0,0,.435-.9,2.569,2.569,0,0,1,4.2-.865l1.224,1.184.009.009a2.632,2.632,0,0,1,.157,3.544c-.187.224-.387.443-.594.65A7.147,7.147,0,0,1,11.664,18.139ZM4.545,1.512a1.227,1.227,0,0,0-.79.29c-.2.172-.4.356-.593.548A5.751,5.751,0,0,0,1.538,7.764a11.391,11.391,0,0,0,3.306,5.645,11.172,11.172,0,0,0,5.626,3.21,5.751,5.751,0,0,0,5.361-1.686c.177-.178.349-.365.509-.557a1.216,1.216,0,0,0-.069-1.643l-1.223-1.184-.009-.009a1.16,1.16,0,0,0-1.9.39,5.429,5.429,0,0,1-.725,1.351,3.059,3.059,0,0,1-2.206.982c-1.551,0-2.962-1.214-4.018-2.272A9.212,9.212,0,0,1,4.2,9.3,3.013,3.013,0,0,1,4.83,5.769a5.6,5.6,0,0,1,1.389-.756,1.165,1.165,0,0,0,.379-1.9L6.588,3.1,5.4,1.865a1.207,1.207,0,0,0-.853-.353Z" transform="translate(0 -0.101)" fill="#622a7b"/>
  <path id="Path_2501" data-name="Path 2501" d="M280.735,8.423a.7.7,0,0,1-.7-.641,7.03,7.03,0,0,0-6.374-6.374.7.7,0,1,1,.126-1.4,8.455,8.455,0,0,1,7.651,7.651.7.7,0,0,1-.638.765Zm-5.488,0a.7.7,0,0,0,.445-.891,2.85,2.85,0,0,0-1.734-1.78.7.7,0,0,0-.47,1.328,1.431,1.431,0,0,1,.867.9.7.7,0,0,0,.891.445Zm2.767-.006a.7.7,0,0,0,.6-.8,5.675,5.675,0,0,0-4.789-4.789.7.7,0,1,0-.2,1.395,4.258,4.258,0,0,1,3.594,3.594.7.7,0,0,0,.8.6Z" transform="translate(-263.403 -0.002)" fill="#622a7b"/>
</svg>
